<svg xmlns="http://www.w3.org/2000/svg" width="67" height="24" viewBox="0 0 67 24" fill="none">
  <path d="M33.9474 9.47368C33.9474 8.41404 33.6087 7.5614 32.9649 6.90175C32.3211 6.24211 31.3333 5.89474 30.1404 5.89474C28.8947 5.89474 27.8772 6.14035 27.1053 6.63158C26.3333 7.1228 25.6667 7.85088 25.0702 8.82456L25.0526 8.84211L22.7895 7.1579C23.6316 5.78947 24.7368 4.76833 26.1053 4.09649C27.4737 3.42465 28.9649 3.08772 30.5789 3.08772C32.0526 3.08772 33.3158 3.33333 34.3684 3.82456C35.4211 4.31579 36.2456 5 36.8421 5.87719C37.4386 6.75439 37.7368 7.78947 37.7368 8.98246C37.7368 10.0351 37.5439 10.9825 37.1579 11.8246C36.7719 12.6667 36.2105 13.3596 35.4737 13.9035L35.4561 13.9211C34.7193 14.4561 33.8246 14.9649 32.7895 15.4386L32.7193 15.4737C31.8421 15.8596 31.193 16.2105 30.7719 16.5263C30.3509 16.8421 30.1404 17.2632 30.1404 17.7895H37.7368V21H25.9825C25.9825 19.8947 26.1754 18.9298 26.5614 18.1053C26.9474 17.2807 27.4386 16.5789 28.0351 16C28.6316 15.4211 29.2456 14.9298 29.8772 14.5263C30.5088 14.1228 31.0877 13.7368 31.614 13.3684C32.1404 13 32.5614 12.6316 32.8772 12.2632C33.193 11.8947 33.3509 11.4561 33.3509 10.9474C33.3509 10.4737 33.193 10.0702 32.8772 9.73684C32.5614 9.40351 32.1053 9.23684 31.5088 9.23684C30.807 9.23684 30.2281 9.43568 29.7719 9.83334C29.3158 10.2309 29.0526 10.7544 28.9825 11.4035L28.9649 11.4211L25.3333 10.7018L25.3509 10.6842C25.4737 9.1807 26.0877 7.95614 27.193 7.01754C28.2982 6.07894 29.7719 5.60965 31.614 5.60965C32.8947 5.60965 33.9474 5.89474 34.7719 6.46491C35.5965 7.03509 36.0088 7.84211 36.0088 8.87719C36.0088 9.60524 35.8333 10.2105 35.4825 10.693C35.1316 11.1754 34.6982 11.5965 34.1842 11.9561L34.1491 11.9737C33.6351 12.3158 33.1053 12.6316 32.5614 12.9298L32.5088 12.9474C31.9649 13.2632 31.4526 13.5614 30.9649 13.8421C30.4772 14.1228 30.0702 14.4211 29.7368 14.7368C29.4035 15.0526 29.1579 15.3509 29 15.6316C28.8421 15.9123 28.7719 16.2105 28.7895 16.5263H34.3333V18.1404H27.4211C27.3684 17.4737 27.4561 16.8772 27.6842 16.3509C27.9123 15.8246 28.2281 15.3684 28.6316 14.9825C29.0351 14.5965 29.4912 14.2632 30 13.9825C30.5088 13.7018 31.0175 13.4211 31.5263 13.1404C32.0351 12.8596 32.5088 12.5614 32.9474 12.2456C33.386 11.9298 33.7368 11.5789 34 11.193C34.2632 10.807 34.3947 10.3684 34.3947 9.87719C34.3947 9.24562 34.1667 8.77632 33.7105 8.46929C33.2544 8.16227 32.6667 8.00877 31.9474 8.00877C31.1754 8.00877 30.5614 8.22807 30.1053 8.66667C29.6491 9.10526 29.3684 9.71929 29.2632 10.5088L27.8596 10.193C28.0175 9.01755 28.5088 8.10088 29.3333 7.44393C30.1579 6.78697 30.9298 6.45877 31.9474 6.45877C33.0351 6.45877 33.7368 6.72806 34.3333 7.24562C34.5439 7.42105 34.7193 7.63158 34.8596 7.87719C35 8.1228 35.0702 8.38597 35.0702 8.66668C35.0702 9.17546 34.9474 9.61404 34.7018 9.98246C34.4561 10.3509 34.1667 10.6667 33.8246 10.9298C33.4825 11.193 33.1053 11.4386 32.6842 11.6667C32.2632 11.8947 31.8421 12.1053 31.4211 12.2982C31 12.4912 30.5965 12.6842 30.193 12.8772C29.7895 13.0702 29.4211 13.2982 29.0877 13.5614C28.7544 13.8246 28.5088 14.1053 28.3509 14.4035C28.193 14.7018 28.1404 15.0526 28.193 15.4561H32.8246V16.5263H27.7018C27.7719 16.1754 27.9474 15.8596 28.2281 15.5789C28.5088 15.2982 28.8246 15.0351 29.1754 14.7895C29.5263 14.5439 29.9123 14.3158 30.3333 14.1053C30.7544 13.8947 31.1579 13.6842 31.5614 13.4561C31.9649 13.2281 32.3509 12.9825 32.7193 12.7193C33.0877 12.4561 33.4035 12.1404 33.6667 11.7719C33.9298 11.4035 34.0614 10.9649 34.0614 10.4561C34.0614 9.87719 33.8684 9.41667 33.4825 9.07017C33.0965 8.72368 32.5614 8.55044 31.8772 8.55044C31.1579 8.55044 30.5789 8.75439 30.1404 9.1623C29.7018 9.57021 29.4386 10.1228 29.3509 10.8246L26.2281 10.3684C26.3684 9.22807 26.8421 8.30044 27.6491 7.58553C28.4561 6.87062 29.5439 6.51316 30.9123 6.51316C31.9649 6.51316 32.807 6.70176 33.4386 7.07895C34.0702 7.45614 34.5088 7.92105 34.7544 8.47368C35 9.02632 35.1228 9.57018 35.1228 10.1053C35.1228 10.6754 34.9912 11.1754 34.7281 11.6053C34.4649 12.0351 34.1316 12.4035 33.7281 12.7193C33.3246 13.0351 32.8772 13.3158 32.3684 13.5614C31.8596 13.807 31.3509 14.0351 30.8421 14.2456C30.3333 14.4561 29.8596 14.6842 29.4211 14.9298C28.9825 15.1754 28.614 15.4737 28.3158 15.8246C28.0175 16.1754 27.8772 16.6053 27.8947 17.1228H36.193V19.614H27.4737C27.4561 18.6316 27.6842 17.807 28.1579 17.1404C28.6316 16.4737 29.2105 15.9123 29.8947 15.4561C30.5789 15 31.2632 14.614 31.9474 14.2982C32.6316 13.9825 33.2456 13.6667 33.7895 13.3509C34.3333 13.0351 34.7632 12.6842 35.0789 12.2982C35.3947 11.9123 35.5526 11.4386 35.5526 10.8772C35.5526 10.2105 35.3158 9.67543 34.8421 9.27192C34.3684 8.86842 33.7544 8.66667 33 8.66667C32.1754 8.66667 31.5088 8.88596 31 9.32456C30.4912 9.76316 30.1754 10.386 30.0526 11.193L27.2456 10.7895C27.4035 9.55263 27.9123 8.57894 28.7719 7.8684C29.6316 7.15787 31.1579 6.7964 32.4035 6.7964C33.5439 6.7964 34.4737 7.03509 35.193 7.5124C35.9123 7.98972 36.2719 8.70175 36.2719 9.64912C36.2719 10.386 36.0965 11.0175 35.7456 11.5439C35.3947 12.0702 34.9474 12.5088 34.4035 12.8596C33.8596 13.2105 33.2807 13.5263 32.6667 13.807C32.0526 14.0877 31.4386 14.3684 30.8246 14.6491C30.2105 14.9298 29.6316 15.2456 29.0877 15.5964C28.5439 15.9474 28.0877 16.3684 27.7193 16.8596C27.3509 17.3509 27.1579 17.9474 27.1403 18.6491H35.5789V19.8246H26.7018V19.4386C26.7018 18.7193 26.8772 18.0877 27.2281 17.5438C27.5789 17 28.0175 16.5439 28.5439 16.1755C29.0702 15.807 29.6316 15.4912 30.2281 15.2281C30.8246 14.9649 31.4211 14.7018 32.0175 14.4386C32.614 14.1754 33.1754 13.8947 33.7018 13.5964C34.2281 13.2982 34.6667 12.9474 35.0175 12.5439C35.3684 12.1404 35.5439 11.6491 35.5439 11.0702C35.5439 10.4561 35.3158 9.96317 34.8596 9.59648C34.4035 9.22979 33.7719 9.04645 32.9649 9.04645C32.0877 9.04645 31.386 9.29209 30.8596 9.78335C30.3333 10.2746 30.0175 10.9649 29.9123 11.8421L27.9298 11.5789C28.0877 10.386 28.5789 9.44737 29.4035 8.75439C30.2281 8.0614 31.3158 7.7149 32.6667 7.7149C33.7193 7.7149 34.614 7.93421 35.3509 8.37283C36.0877 8.81145 36.4561 9.5439 36.4561 10.5702C36.4561 11.2544 36.2632 11.8158 35.8772 12.2544C35.4912 12.6929 35.0175 13.0526 34.4561 13.3333C33.8947 13.614 33.2982 13.8596 32.6667 14.0702C32.0351 14.2807 31.4035 14.5088 30.7719 14.7544C30.1404 15 29.5439 15.2632 28.9825 15.5439C28.4211 15.8246 27.9474 16.1754 27.5614 16.5964C27.1754 17.0175 26.9825 17.5439 26.9825 18.1754V21.193H37.1228V9.47368H33.9474Z" fill="#0060FF"/>
  <path d="M44 19.5263V16.8947H49.6667L51.8333 13.7895H42.6667V11.1579H53.6667L55.8333 8.05263H41.3333V5.42105H57.6667L59.8333 2.31579H37.6667V21.1053H46.1667L44 19.5263Z" fill="#0060FF"/>
  <path d="M13.4737 21H9.73343L3.3157 13H8.63159L11.9474 17.1579L15.2632 13H20.5773L14.1579 21H13.4737Z" fill="#0060FF"/>
  <path d="M63.6667 21H66.4999L60.8334 11.1579H64.5L66.4999 14.5263L60.8334 2.31579H57.0001L63.6667 13.7895H60L57.0001 8.05263L55.8334 6.47365V21H59.6667V17.1579L61.8334 13.7895L63.6667 17.1579V21Z" fill="#0060FF"/>
  <path d="M12.316 2.65778L15.2631 7.73681L10.579 7.73681L8.31573 4.23678L8.31573 10.5789L5.05255 10.5789L5.05253 2.31577L0 2.31577L12.316 2.65778Z" fill="#0060FF"/>
  <path d="M14.1578 5.42104L17.4208 5.42104L17.4208 10.5789L14.1578 10.5789L14.1578 5.42104Z" fill="#0060FF"/>
</svg>